<svg width="32" height="32" viewBox="0 0 32 32" fill="none" xmlns="http://www.w3.org/2000/svg">
<path d="M5.33333 14.6667H13.3333C13.687 14.6667 14.0261 14.5263 14.2761 14.2762C14.5262 14.0262 14.6667 13.687 14.6667 13.3334V5.33339C14.6667 4.97977 14.5262 4.64063 14.2761 4.39059C14.0261 4.14054 13.687 4.00006 13.3333 4.00006H5.33333C4.97971 4.00006 4.64057 4.14054 4.39052 4.39059C4.14048 4.64063 4 4.97977 4 5.33339V13.3334C4 13.687 4.14048 14.0262 4.39052 14.2762C4.64057 14.5263 4.97971 14.6667 5.33333 14.6667ZM6.66667 6.66673H12V12.0001H6.66667V6.66673ZM26.6667 4.00006H18.6667C18.313 4.00006 17.9739 4.14054 17.7239 4.39059C17.4738 4.64063 17.3333 4.97977 17.3333 5.33339V13.3334C17.3333 13.687 17.4738 14.0262 17.7239 14.2762C17.9739 14.5263 18.313 14.6667 18.6667 14.6667H26.6667C27.0203 14.6667 27.3594 14.5263 27.6095 14.2762C27.8595 14.0262 28 13.687 28 13.3334V5.33339C28 4.97977 27.8595 4.64063 27.6095 4.39059C27.3594 4.14054 27.0203 4.00006 26.6667 4.00006ZM25.3333 12.0001H20V6.66673H25.3333V12.0001ZM13.3333 28.0001C13.687 28.0001 14.0261 27.8596 14.2761 27.6095C14.5262 27.3595 14.6667 27.0203 14.6667 26.6667V18.6667C14.6667 18.3131 14.5262 17.974 14.2761 17.7239C14.0261 17.4739 13.687 17.3334 13.3333 17.3334H5.33333C4.97971 17.3334 4.64057 17.4739 4.39052 17.7239C4.14048 17.974 4 18.3131 4 18.6667V26.6667C4 27.0203 4.14048 27.3595 4.39052 27.6095C4.64057 27.8596 4.97971 28.0001 5.33333 28.0001H13.3333ZM6.66667 20.0001H12V25.3334H6.66667V20.0001ZM24 18.6667H21.3333V21.3334H18.6667V24.0001H21.3333V26.6667H24V24.0001H26.6667V21.3334H24V18.6667Z" fill="#988265"/>
</svg>
