<svg width="32" height="32" viewBox="0 0 32 32" fill="none" xmlns="http://www.w3.org/2000/svg">
<path d="M12.334 16.002H20.3354" stroke="#988265" stroke-width="2.66714" stroke-linecap="round" stroke-linejoin="round"/>
<path d="M12.334 20.003H20.3354" stroke="#988265" stroke-width="2.66714" stroke-linecap="round" stroke-linejoin="round"/>
<path d="M24.1076 9.10555C24.8785 9.87643 25.2639 10.2619 25.467 10.752C25.67 11.2422 25.67 11.7873 25.67 12.8774V22.6701C25.67 25.1846 25.67 26.4419 24.8888 27.2231C24.1076 28.0043 22.8503 28.0043 20.3357 28.0043H12.3343C9.81968 28.0043 8.56237 28.0043 7.78119 27.2231C7 26.4419 7 25.1846 7 22.6701V9.33435C7 6.81974 7 5.56243 7.78119 4.78125C8.56237 4.00006 9.81968 4.00006 12.3343 4.00006H16.7925C17.8827 4.00006 18.4279 4.00006 18.918 4.20308C19.4082 4.40611 19.7936 4.79155 20.5646 5.56243L24.1076 9.10555Z" stroke="#988265" stroke-width="2.66714" stroke-linejoin="round"/>
</svg>
