<svg width="32" height="32" viewBox="0 0 32 32" fill="none" xmlns="http://www.w3.org/2000/svg">
<path d="M16.4982 10.9556C17.1258 10.9556 17.6345 10.4468 17.6345 9.81922C17.6345 9.19163 17.1258 8.68286 16.4982 8.68286C15.8706 8.68286 15.3618 9.19163 15.3618 9.81922C15.3618 10.4468 15.8706 10.9556 16.4982 10.9556Z" fill="#988265"/>
<path d="M16.5 28H4V15.5C4 13.0277 4.73311 10.611 6.10663 8.55538C7.48015 6.49976 9.43238 4.89761 11.7165 3.95151C14.0005 3.00542 16.5139 2.75787 18.9386 3.24019C21.3634 3.7225 23.5907 4.91301 25.3388 6.66117C27.087 8.40933 28.2775 10.6366 28.7598 13.0614C29.2421 15.4861 28.9946 17.9995 28.0485 20.2835C27.1024 22.5676 25.5002 24.5199 23.4446 25.8934C21.389 27.2669 18.9723 28 16.5 28ZM6.27273 25.7273H16.5C18.5228 25.7273 20.5001 25.1275 22.182 24.0037C23.8638 22.8799 25.1747 21.2826 25.9488 19.4138C26.7228 17.545 26.9254 15.4887 26.5308 13.5048C26.1361 11.5209 25.1621 9.69854 23.7318 8.26823C22.3015 6.83792 20.4791 5.86387 18.4952 5.46925C16.5113 5.07463 14.455 5.27716 12.5862 6.05124C10.7174 6.82531 9.12012 8.13617 7.99633 9.81804C6.87255 11.4999 6.27273 13.4772 6.27273 15.5V25.7273Z" fill="#988265"/>
<path d="M18.7712 22.3171H17.6348C17.032 22.3171 16.454 22.0777 16.0277 21.6514C15.6015 21.2252 15.3621 20.6472 15.3621 20.0444V14.3626H14.2257C13.9243 14.3626 13.6353 14.2428 13.4222 14.0297C13.2091 13.8166 13.0894 13.5276 13.0894 13.2262C13.0894 12.9248 13.2091 12.6358 13.4222 12.4227C13.6353 12.2096 13.9243 12.0898 14.2257 12.0898H15.3621C15.9648 12.0898 16.5429 12.3293 16.9691 12.7555C17.3954 13.1817 17.6348 13.7598 17.6348 14.3626V20.0444H18.7712C19.0726 20.0444 19.3616 20.1641 19.5747 20.3772C19.7878 20.5903 19.9075 20.8794 19.9075 21.1808C19.9075 21.4821 19.7878 21.7712 19.5747 21.9843C19.3616 22.1974 19.0726 22.3171 18.7712 22.3171Z" fill="#988265"/>
</svg>
