<svg width="32" height="32" viewBox="0 0 32 32" fill="none" xmlns="http://www.w3.org/2000/svg">
<path d="M27.3299 8.34956C27.3299 9.41905 26.8245 10.371 26.0488 10.9822C25.4847 11.4288 24.7678 11.6991 23.9804 11.6991C22.1234 11.6991 20.6309 10.2065 20.6309 8.34956C20.6309 7.56213 20.9012 6.85698 21.3478 6.2811H21.3595C21.9589 5.50542 22.9109 5.00006 23.9804 5.00006C25.8373 5.00006 27.3299 6.49264 27.3299 8.34956Z" stroke="#988265" stroke-width="2.39284" stroke-linecap="round" stroke-linejoin="round"/>
<path d="M11.699 8.34956C11.699 10.2065 10.2064 11.6991 8.3495 11.6991C7.56207 11.6991 6.85692 11.4288 6.28104 10.9822C5.50536 10.371 5 9.41905 5 8.34956C5 6.49264 6.49258 5.00006 8.3495 5.00006C9.41899 5.00006 10.371 5.50542 10.9821 6.2811C11.4287 6.85698 11.699 7.56213 11.699 8.34956Z" stroke="#988265" stroke-width="2.39284" stroke-linecap="round" stroke-linejoin="round"/>
<path d="M27.3299 23.9806C27.3299 25.8375 25.8373 27.3301 23.9804 27.3301C22.9109 27.3301 21.9589 26.8248 21.3595 26.0491H21.3478C20.9012 25.485 20.6309 24.7681 20.6309 23.9806C20.6309 22.1237 22.1234 20.6311 23.9804 20.6311C24.7678 20.6311 25.4729 20.9014 26.0488 21.348V21.3598C26.8245 21.9592 27.3299 22.9111 27.3299 23.9806Z" stroke="#988265" stroke-width="2.39284" stroke-linecap="round" stroke-linejoin="round"/>
<path d="M11.699 23.9806C11.699 24.7681 11.4287 25.4732 10.9821 26.0491C10.371 26.8365 9.41899 27.3301 8.3495 27.3301C6.49258 27.3301 5 25.8375 5 23.9806C5 22.9111 5.50536 21.9592 6.28104 21.3598V21.348C6.84516 20.9014 7.56207 20.6311 8.3495 20.6311C10.2064 20.6311 11.699 22.1237 11.699 23.9806Z" stroke="#988265" stroke-width="2.39284" stroke-linecap="round" stroke-linejoin="round"/>
<path d="M27.33 16.1651C27.33 18.0455 26.8716 19.7966 26.049 21.348C25.4848 20.9014 24.7679 20.6311 23.9805 20.6311C22.1236 20.6311 20.631 22.1236 20.631 23.9806C20.631 24.768 20.9013 25.4731 21.3479 26.049C19.7966 26.8717 18.0454 27.3301 16.165 27.3301C14.2963 27.3301 12.5334 26.8717 10.9821 26.049C11.4287 25.4849 11.699 24.768 11.699 23.9806C11.699 22.1236 10.2064 20.6311 8.3495 20.6311C7.56207 20.6311 6.85692 20.9014 6.28104 21.348C5.45835 19.7966 5 18.0455 5 16.1651C5 14.2964 5.45835 12.5335 6.28104 10.9822C6.85692 11.4288 7.56207 11.6991 8.3495 11.6991C10.2064 11.6991 11.699 10.2065 11.699 8.34956C11.699 7.56213 11.4287 6.85698 10.9821 6.2811C12.5334 5.45841 14.2963 5.00006 16.165 5.00006C18.0454 5.00006 19.7966 5.45841 21.3479 6.2811C20.9013 6.84522 20.631 7.56213 20.631 8.34956C20.631 10.2065 22.1236 11.6991 23.9805 11.6991C24.7679 11.6991 25.4731 11.4288 26.049 10.9822C26.8716 12.5335 27.33 14.2964 27.33 16.1651Z" stroke="#988265" stroke-width="2.39284" stroke-linecap="round" stroke-linejoin="round"/>
</svg>
