<svg width="32" height="32" viewBox="0 0 32 32" fill="none" xmlns="http://www.w3.org/2000/svg">
<path d="M27.8336 1.00174H22.5206C21.9839 1.00174 21.5009 1.43108 21.3936 1.96775C21.3399 2.55809 21.7156 3.09476 22.3059 3.14843C22.3596 3.14843 22.4132 3.14843 22.4132 3.14843H27.78C28.3703 3.14843 28.8533 3.5241 28.8533 3.95344V10.9302C28.8533 11.3595 28.3703 11.7352 27.78 11.7352H27.4043C26.7603 11.7352 26.2236 12.2719 26.2236 12.9695V13.1842C26.2236 13.2915 26.1699 13.3452 26.0626 13.3452C26.0089 13.3452 26.0089 13.3452 25.9553 13.2915L24.1843 12.0035C23.9696 11.8425 23.7013 11.7889 23.4329 11.7889H16.0268C15.4902 11.8425 15.0608 11.4669 14.9535 10.9839V4.06077C15.0072 3.5241 15.4902 3.2021 16.0268 3.25576C16.4562 3.25576 16.8318 3.0411 16.9928 2.66543C17.2612 2.12875 17.0465 1.48475 16.5098 1.21641C16.3488 1.16274 16.1878 1.10907 16.0268 1.10907C14.3095 1.05541 12.8605 2.39709 12.8068 4.06077V7.28081C8.08408 5.88546 3.09302 8.56882 1.69767 13.3452C1.42934 14.2039 1.322 15.0626 1.322 15.9749C1.21467 17.7459 1.75134 19.5169 2.82469 20.966C2.66369 21.8783 2.18068 22.6833 1.48301 23.22H1.42934C1 23.542 0.892665 24.0787 1.10733 24.5617C1.26834 24.9373 1.59034 25.152 1.96601 25.152C2.55635 25.0983 3.09302 24.9373 3.6297 24.7227C4.32737 24.508 5.66905 24.0787 6.25939 23.9713C6.47406 24.0787 6.68873 24.186 6.9034 24.2933V25.313C6.95707 27.0304 8.40608 28.4257 10.1234 28.372H17.2612L20.5886 30.9481C20.8032 31.1091 21.0179 31.2164 21.2862 31.2164C21.5009 31.2164 21.7692 31.1627 21.9302 31.0017C22.2522 30.7871 22.4132 30.4114 22.4132 29.9821V28.3184C23.9159 28.1037 25.0429 26.8157 25.0966 25.313V18.0143C25.0429 16.2969 23.5939 14.9016 21.8766 14.9552H19.1395C19.0859 14.5796 19.0322 14.2576 18.9785 13.8819H23.1109L26.4919 16.3506C26.7066 16.5116 26.9213 16.5652 27.1896 16.5652C27.4043 16.5652 27.6726 16.5116 27.8336 16.3506C28.1556 16.1359 28.3703 15.7602 28.3166 15.3309V13.7745C29.8193 13.6135 30.9463 12.3792 31 10.8765V3.89977C30.9463 2.23609 29.4973 0.948073 27.8336 1.00174ZM23.0036 18.0143V25.3667C22.9499 25.9034 22.4669 26.3327 21.9302 26.279H21.5546C20.8569 26.2254 20.3202 26.762 20.3202 27.4597V27.728C20.3202 27.8354 20.2665 27.889 20.1592 27.889C20.1055 27.889 20.1055 27.889 20.0519 27.8354L18.3345 26.4937C18.1199 26.3327 17.8515 26.2254 17.5832 26.2254H10.1234C9.58676 26.279 9.10376 25.8497 9.05009 25.313V24.8837C9.47943 24.9373 9.8551 24.9373 10.2844 24.9373C14.7925 24.9373 18.6029 21.5563 19.1395 17.1019H21.9302C22.4669 17.0483 22.9499 17.4239 23.0036 18.0143ZM17.1002 15.9212C17.1002 19.6779 14.0411 22.7906 10.2844 22.7906C9.6941 22.7906 9.10376 22.737 8.51342 22.576C8.40608 22.5223 8.24508 22.4686 8.13774 22.4686C7.81574 22.3076 7.49374 22.1466 7.17173 21.9856C6.7424 21.7173 6.36673 21.7173 5.02504 22.093C4.91771 22.093 4.86404 22.093 4.81038 21.9856C4.81038 21.932 4.81038 21.932 4.81038 21.8783C4.86404 21.7173 4.91771 21.5026 4.91771 21.3416C5.02504 20.805 4.91771 20.2683 4.64937 19.8389C3.7907 18.7119 3.36136 17.3703 3.46869 15.9749C3.46869 12.2182 6.52773 9.1055 10.2844 9.1055C11.1431 9.1055 12.0018 9.2665 12.8068 9.5885V10.9302C12.8605 12.6475 14.3095 13.9892 16.0268 13.8819H16.7782C16.9928 14.5259 17.1002 15.2236 17.1002 15.9212Z" fill="#988265"/>
</svg>
