<svg width="32" height="32" viewBox="0 0 32 32" fill="none" xmlns="http://www.w3.org/2000/svg">
<path d="M27 25.1665C27 22.9412 24.8666 21.048 21.8889 20.3462M19.3333 25.1667C19.3333 22.3439 15.9008 20.0556 11.6667 20.0556C7.43248 20.0556 4 22.3439 4 25.1667M19.3333 16.2222C22.1561 16.2222 24.4444 13.9338 24.4444 11.1111C24.4444 8.28832 22.1561 6 19.3333 6M11.6667 16.2222C8.84388 16.2222 6.55556 13.9338 6.55556 11.1111C6.55556 8.28832 8.84388 6 11.6667 6C14.4894 6 16.7778 8.28832 16.7778 11.1111C16.7778 13.9338 14.4894 16.2222 11.6667 16.2222Z" stroke="#988265" stroke-width="2.39583" stroke-linecap="round" stroke-linejoin="round"/>
<path d="M26 17.5H31" stroke="#988265" stroke-width="1.9" stroke-linecap="round" stroke-linejoin="round"/>
<path d="M28.5 15V20" stroke="#988265" stroke-width="1.9" stroke-linecap="round" stroke-linejoin="round"/>
</svg>
