<svg width="32" height="32" viewBox="0 0 32 32" fill="none" xmlns="http://www.w3.org/2000/svg">
<path d="M10.1657 28.33H20.8308C24.5636 28.33 27.4965 25.397 27.4965 21.6641V16.3314C27.4965 15.5315 26.9633 14.9983 26.1634 14.9983C25.3635 14.9983 24.8303 15.5315 24.8303 16.3314V21.6641C24.8303 23.9305 23.0972 25.6637 20.8308 25.6637H10.1657C7.89936 25.6637 6.16628 23.9305 6.16628 21.6641V10.9988C6.16628 8.73236 7.89936 6.99923 10.1657 6.99923H15.4983C16.2982 6.99923 16.8314 6.46596 16.8314 5.66606C16.8314 4.86616 16.2982 4.33289 15.4983 4.33289H10.1657C6.43291 4.33289 3.5 7.26587 3.5 10.9988V21.6641C3.5 25.397 6.43291 28.33 10.1657 28.33Z" fill="#988265"/>
<path d="M23.4974 3C20.5644 3 18.1648 5.39971 18.1648 8.33269C18.1648 11.2657 20.5644 13.6654 23.4974 13.6654C26.4303 13.6654 28.8299 11.2657 28.8299 8.33269C28.8299 5.39971 26.4303 3 23.4974 3ZM23.4974 10.999C22.0309 10.999 20.8311 9.79919 20.8311 8.33269C20.8311 6.8662 22.0309 5.66635 23.4974 5.66635C24.9638 5.66635 26.1636 6.8662 26.1636 8.33269C26.1636 9.79919 24.9638 10.999 23.4974 10.999Z" fill="#988265"/>
</svg>
