<svg width="30" height="30" viewBox="0 0 30 30" fill="none" xmlns="http://www.w3.org/2000/svg">
<path d="M15 0C6.71563 0 0 6.71563 0 15C0 23.2844 6.71563 30 15 30C23.2844 30 30 23.2844 30 15C30 6.71563 23.2844 0 15 0ZM9.11094 10.3125H20.8609C21.4844 10.3125 21.1625 11.1125 20.8234 11.3172C20.4844 11.5203 15.7922 14.3594 15.6156 14.4641C15.4391 14.5687 15.2141 14.6203 14.9859 14.6203C14.7664 14.6248 14.5496 14.5709 14.3578 14.4641L9.14844 11.3172C8.80937 11.1125 8.48906 10.3125 9.11094 10.3125ZM21.25 18.9062C21.25 19.2344 20.8562 19.6875 20.5562 19.6875H9.44375C9.14375 19.6875 8.75 19.2344 8.75 18.9062V13.2078C8.75 13.0641 8.74687 12.8781 9.01875 13.0359L14.3578 16.1844C14.5462 16.2996 14.7655 16.3541 14.9859 16.3406C15.2141 16.3406 15.3797 16.3234 15.6156 16.1844L20.9812 13.0375C21.2531 12.8781 21.25 13.0656 21.25 13.2094V18.9062Z" fill="#221F1F"/>
</svg>
