<svg width="32" height="32" viewBox="0 0 32 32" fill="none" xmlns="http://www.w3.org/2000/svg">
<path d="M26.6666 16.0001C26.6666 10.9721 26.6666 8.45744 25.1039 6.8961C23.5426 5.33343 21.0279 5.33344 15.9999 5.33344C10.9719 5.33344 8.45725 5.33343 6.89592 6.8961C5.33325 8.45744 5.33325 10.9721 5.33325 16.0001V24.0001C5.33325 25.2574 5.33325 25.8854 5.72392 26.2761C6.11459 26.6668 6.74259 26.6668 7.99992 26.6668H15.9999C21.0279 26.6668 23.5426 26.6668 25.1039 25.1041C26.6666 23.5428 26.6666 21.0281 26.6666 16.0001Z" stroke="#988265" stroke-width="2.4"/>
<path d="M12 13.3334H20M12 18.6668H16" stroke="#988265" stroke-width="2.4" stroke-linecap="round" stroke-linejoin="round"/>
</svg>
