<svg width="32" height="32" viewBox="0 0 32 32" fill="none" xmlns="http://www.w3.org/2000/svg">
<path fill-rule="evenodd" clip-rule="evenodd" d="M12.2436 5.06222C12.6957 3.56183 14.0153 2 16.0014 2C17.9885 2 19.3071 3.56288 19.762 5.06075C19.7655 5.06396 19.7689 5.06675 19.7719 5.0688C20.9011 5.53635 22.2329 6.28461 23.2748 7.65262C24.3268 9.0339 25.0058 10.9445 25.0058 13.5987C25.0058 16.2305 25.2826 17.6655 25.6854 18.6452C26.0384 19.5038 26.5007 20.066 27.17 20.8799C27.2677 20.9988 27.3699 21.123 27.4767 21.2543C28.7376 22.8047 27.5711 25.0296 25.5631 25.0296H21.052C21.0307 26.3344 20.5051 27.5845 19.5794 28.5138C18.6335 29.4633 17.3468 30 16.0014 30C14.6559 30 13.3692 29.4633 12.4233 28.5138C11.4976 27.5845 10.972 26.3344 10.9507 25.0296H6.44577C4.44201 25.0296 3.25439 22.8163 4.52604 21.2542C4.63296 21.1228 4.73517 20.9986 4.83296 20.8796C5.50213 20.0659 5.96453 19.5035 6.31782 18.6449C6.72099 17.6651 6.99847 16.2301 7.00002 13.5987M13.1316 25.0296C13.1527 25.7738 13.4564 26.48 13.9775 27.0031C14.5173 27.545 15.2457 27.8462 16.0014 27.8462C16.757 27.8462 17.4854 27.545 18.0252 27.0031C18.5463 26.48 18.85 25.7738 18.8711 25.0296H13.1316ZM19.9625 22.8757H6.44577C6.3567 22.8757 6.30503 22.8537 6.27615 22.836C6.2442 22.8163 6.22079 22.7898 6.20602 22.7608C6.19097 22.7312 6.18707 22.7034 6.18899 22.6821C6.19054 22.6649 6.19655 22.6392 6.22526 22.6039C6.32042 22.487 6.41656 22.3707 6.51292 22.2542C7.17672 21.4512 7.85381 20.6322 8.33781 19.4559C8.89379 18.1047 9.1789 16.351 9.18049 13.5993C9.18049 11.3204 9.75507 9.88777 10.4724 8.94621C11.1974 7.99453 12.1475 7.43942 13.0829 7.05272M19.9625 22.8757H25.5631C25.6488 22.8757 25.6979 22.8545 25.7253 22.8375C25.756 22.8184 25.7795 22.7921 25.7947 22.7621C25.8101 22.7315 25.8142 22.7025 25.8122 22.6802C25.8106 22.6622 25.8044 22.6372 25.7774 22.6039C25.6823 22.487 25.5863 22.3709 25.49 22.2544C24.8261 21.4514 24.1489 20.6322 23.6652 19.4557C23.1096 18.1043 22.8253 16.3504 22.8253 13.5987C22.8253 11.3228 22.2504 9.89019 21.5324 8.94748C20.8066 7.99455 19.8561 7.43836 18.9228 7.05265C18.3855 6.8308 17.8686 6.33961 17.6812 5.70552L17.6804 5.70281C17.3985 4.73984 16.6933 4.15385 16.0014 4.15385C15.3095 4.15385 14.6045 4.74028 14.3263 5.70108L14.3255 5.70373C14.1369 6.34878 13.614 6.83338 13.0829 7.05272M12.2436 5.06222C12.2414 5.06409 12.2392 5.06582 12.2371 5.06727L12.2436 5.06222ZM12.2362 5.06789C11.1061 5.53562 9.7728 6.28255 8.73017 7.65109C7.67822 9.03186 7.00013 10.9428 7.00002 13.5987" fill="#988265"/>
<path d="M12.2436 5.06222C12.6957 3.56183 14.0153 2 16.0014 2C17.9885 2 19.3071 3.56288 19.762 5.06075C19.7655 5.06396 19.7689 5.06675 19.7719 5.0688C20.9011 5.53635 22.2329 6.28461 23.2748 7.65262C24.3268 9.0339 25.0058 10.9445 25.0058 13.5987C25.0058 16.2305 25.2826 17.6655 25.6854 18.6452C26.0384 19.5038 26.5007 20.066 27.17 20.8799C27.2677 20.9988 27.3699 21.123 27.4767 21.2543C28.7376 22.8047 27.5711 25.0296 25.5631 25.0296H21.052C21.0307 26.3344 20.5051 27.5845 19.5794 28.5138C18.6335 29.4633 17.3468 30 16.0014 30C14.6559 30 13.3692 29.4633 12.4233 28.5138C11.4976 27.5845 10.972 26.3344 10.9507 25.0296H6.44577C4.44201 25.0296 3.25439 22.8163 4.52604 21.2542C4.63296 21.1228 4.73517 20.9986 4.83296 20.8796C5.50213 20.0659 5.96453 19.5035 6.31782 18.6449C6.72099 17.6651 6.99847 16.2301 7.00002 13.5987M12.2436 5.06222L7.00002 13.5987M12.2436 5.06222C12.2414 5.06409 12.2392 5.06582 12.2371 5.06727L12.2436 5.06222ZM7.00002 13.5987C7.00013 10.9428 7.67822 9.03186 8.73017 7.65109C9.7728 6.28255 11.1061 5.53562 12.2362 5.06789L7.00002 13.5987ZM13.9775 27.0031C13.4564 26.48 13.1527 25.7738 13.1316 25.0296H18.8711C18.85 25.7738 18.5463 26.48 18.0252 27.0031C17.4854 27.545 16.757 27.8462 16.0014 27.8462C15.2457 27.8462 14.5173 27.545 13.9775 27.0031ZM19.9625 22.8757H25.5631C25.6488 22.8757 25.6979 22.8545 25.7253 22.8375C25.756 22.8184 25.7795 22.7921 25.7947 22.7621C25.8101 22.7315 25.8142 22.7025 25.8122 22.6802C25.8106 22.6622 25.8044 22.6372 25.7774 22.6039C25.6823 22.487 25.5863 22.3709 25.49 22.2544C24.8261 21.4514 24.1489 20.6322 23.6652 19.4557C23.1096 18.1043 22.8253 16.3504 22.8253 13.5987C22.8253 11.3228 22.2504 9.89019 21.5324 8.94748C20.8066 7.99455 19.8561 7.43836 18.9228 7.05265C18.3855 6.8308 17.8686 6.33961 17.6812 5.70552L17.6804 5.70281C17.3985 4.73984 16.6933 4.15385 16.0014 4.15385C15.3095 4.15385 14.6045 4.74028 14.3263 5.70108L14.3255 5.70373C14.1369 6.34878 13.614 6.83338 13.0829 7.05272C12.1475 7.43942 11.1974 7.99453 10.4724 8.94621C9.75507 9.88777 9.18049 11.3204 9.18049 13.5993C9.1789 16.351 8.89379 18.1047 8.33781 19.4559C7.85381 20.6322 7.17672 21.4512 6.51292 22.2542C6.41656 22.3707 6.32042 22.487 6.22526 22.6039C6.19655 22.6392 6.19054 22.6649 6.18899 22.6821C6.18707 22.7034 6.19097 22.7312 6.20602 22.7608C6.22079 22.7898 6.2442 22.8163 6.27615 22.836C6.30503 22.8537 6.3567 22.8757 6.44577 22.8757H19.9625Z" stroke="#988265" stroke-width="0.2" stroke-linecap="round" stroke-linejoin="round"/>
</svg>
