<svg width="32" height="32" viewBox="0 0 32 32" fill="none" xmlns="http://www.w3.org/2000/svg">
<path d="M4 14.2224C4 9.95894 4 7.82722 4.50336 7.11006C5.00671 6.3929 7.01109 5.7068 11.0199 4.33457L11.7836 4.07314C13.8733 3.35784 14.9181 3.00018 16 3.00018C17.0819 3.00018 18.1267 3.35784 20.2164 4.07314L20.9801 4.33457C24.9889 5.7068 26.9933 6.3929 27.4967 7.11006C28 7.82722 28 9.95894 28 14.2224C28 14.8663 28 15.5647 28 16.322C28 23.8394 22.348 27.4875 18.8019 29.0366C17.84 29.4567 17.3591 29.6668 16 29.6668C14.6409 29.6668 14.16 29.4567 13.1981 29.0366C9.65195 27.4875 4 23.8394 4 16.322C4 15.5647 4 14.8663 4 14.2224Z" stroke="#988265" stroke-width="2.6087"/>
<path d="M16.0002 14.9976C17.4729 14.9976 18.6668 13.8037 18.6668 12.3309C18.6668 10.8582 17.4729 9.66425 16.0002 9.66425C14.5274 9.66425 13.3335 10.8582 13.3335 12.3309C13.3335 13.8037 14.5274 14.9976 16.0002 14.9976Z" stroke="#988265" stroke-width="2.6087"/>
<path d="M21.3332 20.3327C21.3332 21.8055 21.3332 22.9994 15.9998 22.9994C10.6665 22.9994 10.6665 21.8055 10.6665 20.3327C10.6665 18.8599 13.0543 17.6661 15.9998 17.6661C18.9453 17.6661 21.3332 18.8599 21.3332 20.3327Z" stroke="#988265" stroke-width="2.6087"/>
</svg>
