<svg width="32" height="32" viewBox="0 0 32 32" fill="none" xmlns="http://www.w3.org/2000/svg">
<path d="M26.9995 8.66688C26.9995 10.692 25.3579 12.3336 23.3328 12.3336C21.3076 12.3336 19.666 10.692 19.666 8.66688C19.666 6.64179 21.3076 5.00012 23.3328 5.00012C25.3579 5.00012 26.9995 6.64179 26.9995 8.66688Z" stroke="#988265" stroke-width="2.44451"/>
<path d="M26.9995 23.3329C26.9995 25.3581 25.3579 26.9997 23.3328 26.9997C21.3076 26.9997 19.666 25.3581 19.666 23.3329C19.666 21.3077 21.3076 19.6661 23.3328 19.6661C25.3579 19.6661 26.9995 21.3077 26.9995 23.3329Z" stroke="#988265" stroke-width="2.44451"/>
<path d="M12.3335 16.0018C12.3335 18.027 10.6919 19.6686 8.66676 19.6686C6.64167 19.6686 5 18.027 5 16.0018C5 13.9767 6.64167 12.3351 8.66676 12.3351C10.6919 12.3351 12.3335 13.9767 12.3335 16.0018Z" stroke="#988265" stroke-width="2.44451"/>
<path d="M11.9932 14.3376L19.6682 10.5001" stroke="#988265" stroke-width="2.44451" stroke-linecap="round" stroke-linejoin="round"/>
<path d="M12.334 17.8341L19.6672 21.5007" stroke="#988265" stroke-width="2.55069" stroke-linecap="round" stroke-linejoin="round"/>
</svg>
