<svg width="32" height="32" viewBox="0 0 32 32" fill="none" xmlns="http://www.w3.org/2000/svg">
<path d="M16.335 4.00012C23.1476 4.00012 28.67 9.5225 28.67 16.3351C28.67 23.1477 23.1476 28.6701 16.335 28.6701C14.2356 28.6701 12.2583 28.1459 10.5277 27.2208L4 28.6701L5.4506 22.1449C4.52547 20.4131 4 18.4358 4 16.3351C4 9.5225 9.52238 4.00012 16.335 4.00012ZM16.335 6.46712C10.8854 6.46712 6.467 10.8855 6.467 16.3351C6.467 17.9818 6.86912 19.5644 7.62649 20.9805L8.05822 21.7872L7.24904 25.4211L10.8854 24.6144L11.6909 25.0449C13.1069 25.8022 14.6883 26.2031 16.335 26.2031C21.7846 26.2031 26.203 21.7847 26.203 16.3351C26.203 10.8855 21.7846 6.46712 16.335 6.46712ZM17.5685 10.1676V16.3351H22.5025V18.8021H15.1015V10.1676H17.5685Z" fill="#988265"/>
</svg>
