<svg width="32" height="32" viewBox="0 0 32 32" fill="none" xmlns="http://www.w3.org/2000/svg">
<path d="M7.35913 11.353C8.47745 9.41404 10.2045 7.89839 12.2723 7.0413C14.3401 6.18421 16.633 6.03362 18.7951 6.61289C20.9572 7.19216 22.8677 8.4689 24.23 10.245C25.5924 12.0211 26.3304 14.1971 26.3295 16.4355" stroke="#988265" stroke-width="2.4" stroke-linecap="round" stroke-linejoin="round"/>
<path d="M24.9699 21.518C23.8515 23.457 22.1245 24.9727 20.0567 25.8298C17.9889 26.6869 15.696 26.8374 13.5339 26.2582C11.3717 25.6789 9.46128 24.4022 8.09895 22.6261C6.73663 20.85 5.99864 18.6739 5.99951 16.4355" stroke="#988265" stroke-width="2.4" stroke-linecap="round" stroke-linejoin="round"/>
<path d="M7.27124 5V11.3531H13.6243" stroke="#988265" stroke-width="2.4" stroke-linecap="round" stroke-linejoin="round"/>
<path d="M25.0599 27.8707V21.5176H18.7068" stroke="#988265" stroke-width="2.4" stroke-linecap="round" stroke-linejoin="round"/>
</svg>
