<svg width="32" height="32" viewBox="0 0 32 32" fill="none" xmlns="http://www.w3.org/2000/svg">
<path d="M23.4444 26.8333C23.4444 24.5321 20.3353 22.6667 16.5 22.6667C12.6647 22.6667 9.55556 24.5321 9.55556 26.8333M29 22.6672C29 20.9586 27.286 19.4901 24.8333 18.8472M4 22.6672C4 20.9586 5.71403 19.4901 8.16667 18.8472M24.8333 13.2724C25.6857 12.5094 26.2222 11.4007 26.2222 10.1667C26.2222 7.86549 24.3568 6 22.0556 6C20.9883 6 20.015 6.40118 19.2778 7.06096M8.16667 13.2724C7.31424 12.5094 6.77778 11.4007 6.77778 10.1667C6.77778 7.86549 8.64326 6 10.9444 6C12.0116 6 12.9851 6.40118 13.7222 7.06096M16.5 18.5C14.1987 18.5 12.3333 16.6346 12.3333 14.3333C12.3333 12.0322 14.1987 10.1667 16.5 10.1667C18.8012 10.1667 20.6667 12.0322 20.6667 14.3333C20.6667 16.6346 18.8012 18.5 16.5 18.5Z" stroke="#988265" stroke-width="2.5" stroke-linecap="round" stroke-linejoin="round"/>
</svg>
